0
SECTION
2
HEADER
9
$INSUNITS
70
4
9
$ACADVER
1
AC1014
9
$HANDSEED
5
FFFF
0
ENDSEC
0
SECTION
2
TABLES
0
TABLE
2
VPORT
5
8
100
AcDbSymbolTable
0
ENDTAB
0
TABLE
2
LTYPE
5
5
100
AcDbSymbolTable
0
LTYPE
5
14
100
AcDbSymbolTableRecord
100
AcDbLinetypeTableRecord
2
BYBLOCK
70
0
0
LTYPE
5
15
100
AcDbSymbolTableRecord
100
AcDbLinetypeTableRecord
2
BYLAYER
70
0
0
ENDTAB
0
TABLE
2
LAYER
5
2
100
AcDbSymbolTable
70
2
0
LAYER
5
50
100
AcDbSymbolTableRecord
100
AcDbLayerTableRecord
2
0
70
0
6
CONTINUOUS
0
ENDTAB
0
TABLE
2
STYLE
5
3
100
AcDbSymbolTable
70
1
0
STYLE
5
11
100
AcDbSymbolTableRecord
100
AcDbTextStyleTableRecord
2
STANDARD
70
0
0
ENDTAB
0
TABLE
2
VIEW
5
6
100
AcDbSymbolTable
70
0
0
ENDTAB
0
TABLE
2
UCS
5
7
100
AcDbSymbolTable
70
0
0
ENDTAB
0
TABLE
2
APPID
5
9
100
AcDbSymbolTable
70
2
0
APPID
5
12
100
AcDbSymbolTableRecord
100
AcDbRegAppTableRecord
2
ACAD
70
0
0
ENDTAB
0
TABLE
2
DIMSTYLE
5
A
100
AcDbSymbolTable
70
1
0
ENDTAB
0
TABLE
2
BLOCK_RECORD
5
1
100
AcDbSymbolTable
70
1
0
BLOCK_RECORD
5
1F
100
AcDbSymbolTableRecord
100
AcDbBlockTableRecord
2
*MODEL_SPACE
0
BLOCK_RECORD
5
1B
100
AcDbSymbolTableRecord
100
AcDbBlockTableRecord
2
*PAPER_SPACE
0
ENDTAB
0
ENDSEC
0
SECTION
2
BLOCKS
0
BLOCK
5
20
100
AcDbEntity
100
AcDbBlockBegin
2
*MODEL_SPACE
0
ENDBLK
5
21
100
AcDbEntity
100
AcDbBlockEnd
0
BLOCK
5
1C
100
AcDbEntity
100
AcDbBlockBegin
2
*PAPER_SPACE
0
ENDBLK
5
1D
100
AcDbEntity
100
AcDbBlockEnd
0
ENDSEC
0
SECTION
2
ENTITIES
0
LINE
5
100
100
AcDbEntity
8
0
100
AcDbLine
10
-4
20
12.500000000000002
30
0
11
4
21
12.5
31
0
0
LINE
5
101
100
AcDbEntity
8
0
100
AcDbLine
10
4
20
5.7874079730315975
30
0
11
4
21
2.7874079730316037
31
0
0
LINE
5
102
100
AcDbEntity
8
0
100
AcDbLine
10
-3.9999999999999996
20
2.5000000000000009
30
0
11
-1.2499999999999996
21
2.5000000000000009
31
0
0
LINE
5
103
100
AcDbEntity
8
0
100
AcDbLine
10
4
20
2.5
30
0
11
1.2500000000000004
21
2.5000000000000009
31
0
0
LINE
5
104
100
AcDbEntity
8
0
100
AcDbLine
10
-1.2499999999999996
20
2.5000000000000009
30
0
11
-1.2500000000000002
21
3.7148149915724158
31
0
0
LINE
5
105
100
AcDbEntity
8
0
100
AcDbLine
10
1.2500000000000004
20
2.5000000000000009
30
0
11
1.2500000000000013
21
3.7148149915724167
31
0
0
LINE
5
106
100
AcDbEntity
8
0
100
AcDbLine
10
1.2500000000000013
20
3.7148149915724167
30
0
11
0
21
5.5000000000000524
31
0
0
LINE
5
107
100
AcDbEntity
8
0
100
AcDbLine
10
-1.2500000000000002
20
3.7148149915724158
30
0
11
0
21
5.5000000000000524
31
0
0
LINE
5
108
100
AcDbEntity
8
0
100
AcDbLine
10
-1.2499999999999996
20
2.5000000000000009
30
0
11
-1.2499999999999982
21
-1.0843553219559281e-15
31
0
0
LINE
5
109
100
AcDbEntity
8
0
100
AcDbLine
10
-1.2499999999999982
20
-1.0843553219559281e-15
30
0
11
1.250000000000002
21
1.0932749368615674e-15
31
0
0
LINE
5
110
100
AcDbEntity
8
0
100
AcDbLine
10
1.250000000000002
20
1.0932749368615674e-15
30
0
11
1.2500000000000004
21
2.5000000000000009
31
0
0
LINE
5
111
100
AcDbEntity
8
0
100
AcDbLine
10
-3.9999999999999996
20
2.5000000000000009
30
0
11
-3.9999999999999996
21
2.7874079730316077
31
0
0
LINE
5
112
100
AcDbEntity
8
0
100
AcDbLine
10
-3.9999999999999996
20
5.7874079730316099
30
0
11
-4
21
12.500000000000002
31
0
0
LINE
5
113
100
AcDbEntity
8
0
100
AcDbLine
10
-3.9999999999999996
20
2.7874079730316077
30
0
11
-3.9999999999999996
21
5.7874079730316099
31
0
0
LINE
5
114
100
AcDbEntity
8
0
100
AcDbLine
10
4
20
2.7874079730316037
30
0
11
4
21
2.5
31
0
0
LINE
5
115
100
AcDbEntity
8
0
100
AcDbLine
10
4
20
12.5
30
0
11
4
21
5.7874079730315975
31
0
0
LINE
5
116
100
AcDbEntity
8
0
100
AcDbLine
10
-2.4090210326743975
20
8.0595614139862892
30
0
11
-2.5359300976671264
21
8.5756952040278573
31
0
0
LINE
5
117
100
AcDbEntity
8
0
100
AcDbLine
10
-2.5359300976671264
20
8.5756952040278573
30
0
11
-1.4791049567902022
21
8.6902404859493103
31
0
0
LINE
5
118
100
AcDbEntity
8
0
100
AcDbLine
10
-1.4791049567902022
20
8.6902404859493103
30
0
11
-1.7329230867756573
21
9.7225080660324465
31
0
0
LINE
5
119
100
AcDbEntity
8
0
100
AcDbLine
10
-1.7329230867756573
20
9.7225080660324465
30
0
11
-0.6760979458987354
21
9.8370533479538995
31
0
0
LINE
5
120
100
AcDbEntity
8
0
100
AcDbLine
10
-0.6760979458987354
20
9.8370533479538995
30
0
11
-0.92991607588419556
21
10.86932092803703
31
0
0
LINE
5
121
100
AcDbEntity
8
0
100
AcDbLine
10
-0.92991607588419556
20
10.86932092803703
30
0
11
-0.40150350544573271
21
10.92659356899776
31
0
0
LINE
5
122
100
AcDbEntity
8
0
100
AcDbLine
10
-0.40150350544573271
20
10.92659356899776
30
0
11
0
21
11.500000000000055
31
0
0
LINE
5
123
100
AcDbEntity
8
0
100
AcDbLine
10
-2.4090210326743975
20
8.0595614139862892
30
0
11
-3.9999999999999996
21
5.7874079730316099
31
0
0
LINE
5
124
100
AcDbEntity
8
0
100
AcDbLine
10
-1.7329230867756573
20
9.7225080660324465
30
0
11
-1.40526226906004
21
9.4930774914920608
31
0
0
LINE
5
125
100
AcDbEntity
8
0
100
AcDbLine
10
-1.4791049567902022
20
8.6902404859493103
30
0
11
-1.8067657745058028
21
8.9196710604897227
31
0
0
LINE
5
126
100
AcDbEntity
8
0
100
AcDbLine
10
-2.5359300976671264
20
8.5756952040278573
30
0
11
-2.2082692799515238
21
8.3462646294874467
31
0
0
LINE
5
127
100
AcDbEntity
8
0
100
AcDbLine
10
-0.6760979458987354
20
9.8370533479538995
30
0
11
-1.0037587636143344
21
10.066483922494315
31
0
0
LINE
5
128
100
AcDbEntity
8
0
100
AcDbLine
10
-0.92991607588419556
20
10.86932092803703
30
0
11
-0.60225525816860037
21
10.639890353496611
31
0
0
LINE
5
129
100
AcDbEntity
8
0
100
AcDbLine
10
-3.9999999999999996
20
2.7874079730316077
30
0
11
-2.4090210326743957
21
5.0595614139862919
31
0
0
LINE
5
130
100
AcDbEntity
8
0
100
AcDbLine
10
-2.4090210326743957
20
5.0595614139862919
30
0
11
-2.5359300976671264
21
5.5756952040278573
31
0
0
LINE
5
131
100
AcDbEntity
8
0
100
AcDbLine
10
-2.5359300976671264
20
5.5756952040278573
30
0
11
-1.4791049567902004
21
5.690240485949313
31
0
0
LINE
5
132
100
AcDbEntity
8
0
100
AcDbLine
10
-1.4791049567902004
20
5.690240485949313
30
0
11
-1.732923086775662
21
6.722508066032443
31
0
0
LINE
5
133
100
AcDbEntity
8
0
100
AcDbLine
10
-1.732923086775662
20
6.722508066032443
30
0
11
-0.67609794589873551
21
6.8370533479538995
31
0
0
LINE
5
134
100
AcDbEntity
8
0
100
AcDbLine
10
-0.67609794589873551
20
6.8370533479538995
30
0
11
-0.92991607588419711
21
7.8693209280370304
31
0
0
LINE
5
135
100
AcDbEntity
8
0
100
AcDbLine
10
-0.92991607588419711
20
7.8693209280370304
30
0
11
-0.40150350544573299
21
7.9265935689977596
31
0
0
LINE
5
136
100
AcDbEntity
8
0
100
AcDbLine
10
0
20
8.5000000000000533
30
0
11
-0.40150350544573299
21
7.9265935689977596
31
0
0
LINE
5
137
100
AcDbEntity
8
0
100
AcDbLine
10
-1.732923086775662
20
6.722508066032443
30
0
11
-1.4052622690600636
21
6.4930774914920262
31
0
0
LINE
5
138
100
AcDbEntity
8
0
100
AcDbLine
10
-0.92991607588419711
20
7.8693209280370304
30
0
11
-0.60225525816860115
21
7.6398903534966109
31
0
0
LINE
5
139
100
AcDbEntity
8
0
100
AcDbLine
10
-2.5359300976671264
20
5.5756952040278573
30
0
11
-2.2082692799515278
21
5.3462646294874414
31
0
0
LINE
5
140
100
AcDbEntity
8
0
100
AcDbLine
10
-1.4791049567902004
20
5.690240485949313
30
0
11
-1.8067657745057977
21
5.9196710604897307
31
0
0
LINE
5
141
100
AcDbEntity
8
0
100
AcDbLine
10
-0.67609794589873551
20
6.8370533479538995
30
0
11
-1.0037587636143304
21
7.0664839224943208
31
0
0
LINE
5
142
100
AcDbEntity
8
0
100
AcDbLine
10
0
20
8.5000000000000533
30
0
11
0.40150350544573299
21
7.9265935689977596
31
0
0
LINE
5
143
100
AcDbEntity
8
0
100
AcDbLine
10
0.92991607588419711
20
7.8693209280370313
30
0
11
0.40150350544573299
21
7.9265935689977596
31
0
0
LINE
5
144
100
AcDbEntity
8
0
100
AcDbLine
10
0.67609794589873551
20
6.8370533479538986
30
0
11
0.92991607588419711
21
7.8693209280370313
31
0
0
LINE
5
145
100
AcDbEntity
8
0
100
AcDbLine
10
1.732923086775662
20
6.7225080660324421
30
0
11
0.67609794589873551
21
6.8370533479538986
31
0
0
LINE
5
146
100
AcDbEntity
8
0
100
AcDbLine
10
1.4791049567902004
20
5.6902404859493139
30
0
11
1.732923086775662
21
6.7225080660324421
31
0
0
LINE
5
147
100
AcDbEntity
8
0
100
AcDbLine
10
2.5359300976671264
20
5.5756952040278573
30
0
11
1.4791049567902004
21
5.6902404859493139
31
0
0
LINE
5
148
100
AcDbEntity
8
0
100
AcDbLine
10
2.4090210326743957
20
5.0595614139862919
30
0
11
2.5359300976671264
21
5.5756952040278573
31
0
0
LINE
5
149
100
AcDbEntity
8
0
100
AcDbLine
10
3.9999999999999996
20
2.7874079730316081
30
0
11
2.4090210326743957
21
5.0595614139862919
31
0
0
LINE
5
150
100
AcDbEntity
8
0
100
AcDbLine
10
2.4090210326743975
20
8.0595614139862892
30
0
11
3.9999999999999996
21
5.7874079730316108
31
0
0
LINE
5
151
100
AcDbEntity
8
0
100
AcDbLine
10
2.4090210326743975
20
8.0595614139862892
30
0
11
2.5359300976671264
21
8.5756952040278556
31
0
0
LINE
5
152
100
AcDbEntity
8
0
100
AcDbLine
10
2.5359300976671264
20
8.5756952040278556
30
0
11
1.4791049567902022
21
8.6902404859493121
31
0
0
LINE
5
153
100
AcDbEntity
8
0
100
AcDbLine
10
1.4791049567902022
20
8.6902404859493121
30
0
11
1.7329230867756573
21
9.7225080660324448
31
0
0
LINE
5
154
100
AcDbEntity
8
0
100
AcDbLine
10
0.6760979458987354
20
9.8370533479538995
30
0
11
0.92991607588419556
21
10.86932092803703
31
0
0
LINE
5
155
100
AcDbEntity
8
0
100
AcDbLine
10
0.92991607588419556
20
10.86932092803703
30
0
11
0.40150350544573271
21
10.92659356899776
31
0
0
LINE
5
156
100
AcDbEntity
8
0
100
AcDbLine
10
0.40150350544573271
20
10.92659356899776
30
0
11
0
21
11.500000000000055
31
0
0
LINE
5
157
100
AcDbEntity
8
0
100
AcDbLine
10
1.7329230867756573
20
9.7225080660324448
30
0
11
0.6760979458987354
21
9.8370533479538995
31
0
0
ENDSEC
0
SECTION
2
OBJECTS
0
DICTIONARY
5
C
100
AcDbDictionary
3
ACAD_GROUP
350
D
3
ACAD_MLINESTYLE
350
17
0
DICTIONARY
5
D
100
AcDbDictionary
0
DICTIONARY
5
1A
330
C
100
AcDbDictionary
0
DICTIONARY
5
17
100
AcDbDictionary
0
ENDSEC
0
EOF
